<svg width="32" height="32" viewBox="0 0 32 32" fill="none" xmlns="http://www.w3.org/2000/svg">
<path d="M3.2 7.46666C3.05865 7.46466 2.91832 7.49077 2.78715 7.54348C2.65599 7.59619 2.53661 7.67444 2.43594 7.77369C2.33528 7.87294 2.25535 7.9912 2.20079 8.12161C2.14624 8.25202 2.11814 8.39197 2.11814 8.53333C2.11814 8.67469 2.14624 8.81464 2.20079 8.94504C2.25535 9.07545 2.33528 9.19372 2.43594 9.29296C2.53661 9.39221 2.65599 9.47046 2.78715 9.52317C2.91832 9.57588 3.05865 9.60199 3.2 9.59999H28.8C28.9413 9.60199 29.0817 9.57588 29.2128 9.52317C29.344 9.47046 29.4634 9.39221 29.5641 9.29296C29.6647 9.19372 29.7446 9.07545 29.7992 8.94504C29.8538 8.81464 29.8819 8.67469 29.8819 8.53333C29.8819 8.39197 29.8538 8.25202 29.7992 8.12161C29.7446 7.9912 29.6647 7.87294 29.5641 7.77369C29.4634 7.67444 29.344 7.59619 29.2128 7.54348C29.0817 7.49077 28.9413 7.46466 28.8 7.46666H3.2ZM3.2 14.9333C3.05865 14.9313 2.91832 14.9574 2.78715 15.0101C2.65599 15.0629 2.53661 15.1411 2.43594 15.2404C2.33528 15.3396 2.25535 15.4579 2.20079 15.5883C2.14624 15.7187 2.11814 15.8586 2.11814 16C2.11814 16.1414 2.14624 16.2813 2.20079 16.4117C2.25535 16.5421 2.33528 16.6604 2.43594 16.7596C2.53661 16.8589 2.65599 16.9371 2.78715 16.9898C2.91832 17.0425 3.05865 17.0687 3.2 17.0667H28.8C28.9413 17.0687 29.0817 17.0425 29.2128 16.9898C29.344 16.9371 29.4634 16.8589 29.5641 16.7596C29.6647 16.6604 29.7446 16.5421 29.7992 16.4117C29.8538 16.2813 29.8819 16.1414 29.8819 16C29.8819 15.8586 29.8538 15.7187 29.7992 15.5883C29.7446 15.4579 29.6647 15.3396 29.5641 15.2404C29.4634 15.1411 29.344 15.0629 29.2128 15.0101C29.0817 14.9574 28.9413 14.9313 28.8 14.9333H3.2ZM3.2 22.4C3.05865 22.398 2.91832 22.4241 2.78715 22.4768C2.65599 22.5295 2.53661 22.6078 2.43594 22.707C2.33528 22.8063 2.25535 22.9245 2.20079 23.0549C2.14624 23.1853 2.11814 23.3253 2.11814 23.4667C2.11814 23.608 2.14624 23.748 2.20079 23.8784C2.25535 24.0088 2.33528 24.1271 2.43594 24.2263C2.53661 24.3255 2.65599 24.4038 2.78715 24.4565C2.91832 24.5092 3.05865 24.5353 3.2 24.5333H28.8C28.9413 24.5353 29.0817 24.5092 29.2128 24.4565C29.344 24.4038 29.4634 24.3255 29.5641 24.2263C29.6647 24.1271 29.7446 24.0088 29.7992 23.8784C29.8538 23.748 29.8819 23.608 29.8819 23.4667C29.8819 23.3253 29.8538 23.1853 29.7992 23.0549C29.7446 22.9245 29.6647 22.8063 29.5641 22.707C29.4634 22.6078 29.344 22.5295 29.2128 22.4768C29.0817 22.4241 28.9413 22.398 28.8 22.4H3.2Z" fill="white"/>
</svg>
